<svg width="1825" height="420" viewBox="0 0 1825 420" fill="none" xmlns="http://www.w3.org/2000/svg">
<g clip-path="url(#clip0_3_13201)">
<rect width="1825" height="420" fill="#12462B"/>
<path d="M916.244 372.411C928.241 392.171 938.128 412.631 948.001 433.802C955.766 452.153 961.408 469.791 967.762 488.853C968.474 491.674 968.474 493.797 969.173 496.618C993.165 582.015 990.344 671.644 955.766 752.797C955.054 754.207 955.766 754.919 955.054 756.329C948.7 771.859 940.237 786.676 931.76 801.493C921.175 819.844 909.179 834.661 895.772 850.889C892.239 854.422 889.418 857.243 886.597 861.474C885.186 863.597 883.064 864.296 881.653 866.418C880.243 868.54 878.832 869.951 877.421 872.06C876.71 872.772 875.299 873.471 874.6 874.183C863.303 887.59 853.429 899.586 842.843 914.403C829.436 934.164 818.851 951.802 808.964 972.275C787.081 1017.44 774.386 1064.73 768.744 1114.83C758.158 1218.58 782.862 1321.62 833.668 1410.53C840.721 1409.82 848.485 1410.53 855.551 1410.53C900.715 1409.82 945.879 1410.53 991.056 1410.53C933.184 1343.49 892.964 1262.33 881.666 1172.7C874.614 1116.95 878.845 1061.21 897.195 1008.28C909.904 972.288 926.131 940.531 948.001 908.062C950.124 904.529 952.233 901.708 954.356 898.887C955.067 897.477 955.067 896.765 955.766 895.354C983.291 853.011 999.519 811.367 1010.82 762.684C1017.87 730.215 1020.69 699.169 1020.69 667.412C1019.98 619.427 1012.23 572.141 997.397 526.265C979.047 469.804 950.823 419.697 916.244 372.424V372.411Z" fill="#0A301D" fill-opacity="0.11"/>
<path d="M912 372.411C931.049 469.804 923.297 572.128 883.776 663.88C883.064 664.591 882.365 666.002 881.653 666.701C875.299 682.928 866.836 697.047 858.36 712.576C856.949 714.699 855.538 716.109 854.128 718.219C853.416 719.629 853.416 720.341 852.717 721.751C818.838 771.859 782.151 811.38 730.633 842.426C728.51 843.836 727.1 845.247 724.991 846.657C701.697 860.064 679.115 869.239 656.533 883.358C654.41 884.768 653 886.179 650.891 887.589C649.48 888.301 648.768 888.301 647.358 889C617.011 909.46 592.307 930.644 568.314 957.458C567.603 958.17 566.192 958.868 565.493 959.58C541.501 989.215 519.618 1018.15 504.102 1052.03C503.39 1052.74 502.691 1054.15 501.979 1054.85C496.337 1066.85 491.393 1078.15 487.162 1090.14C484.341 1097.19 480.808 1104.26 478.699 1111.31C477.987 1112.72 478.699 1114.13 477.987 1115.54C456.815 1177.65 451.173 1242.57 455.405 1306.8C505.512 1328.68 554.908 1350.55 605.727 1371.02C588.088 1308.92 581.023 1246.11 590.91 1180.48C593.032 1171.31 593.731 1162.13 595.853 1152.96C605.028 1118.38 614.203 1086.62 632.554 1055.56C633.964 1052.74 635.375 1049.21 636.785 1046.39C657.957 1011.81 681.25 981.464 712.296 955.349C713.007 954.637 713.706 953.226 714.418 952.527C765.224 910.883 811.1 874.196 849.923 818.433C889.444 760.561 914.149 704.1 926.145 636.354C926.145 634.943 927.555 634.232 927.555 632.821C931.787 607.418 934.608 583.426 936.019 558.009C936.731 538.249 936.731 518.488 935.307 498.727C932.486 455.672 924.009 413.33 912.013 372.397L912 372.411Z" fill="#0A301D" fill-opacity="0.11"/>
<path d="M912 372.411C909.877 385.817 907.768 399.224 904.947 413.343C904.947 414.753 903.536 415.465 903.536 416.876C880.954 519.912 830.847 607.418 748.983 673.753C746.86 675.164 746.161 677.286 744.039 678.697C700.984 711.166 657.943 735.158 606.425 747.853C605.713 747.853 604.303 749.264 603.604 749.264C589.485 752.085 576.79 755.618 563.384 757.727C547.855 759.849 533.037 761.959 517.508 764.081C487.873 768.313 460.348 777.488 432.823 787.375C408.118 797.249 385.536 807.847 362.954 822.665C361.544 823.377 360.832 823.377 359.421 824.075C298.03 863.597 250.743 909.473 211.92 971.576C211.209 972.987 209.798 972.987 209.099 974.397C201.335 986.394 196.391 997.691 188.64 1009.69C187.928 1011.1 187.928 1012.51 187.229 1013.92C174.521 1036.5 166.058 1059.79 156.883 1083.08C185.107 1109.89 211.222 1138.13 239.459 1166.35C249.333 1176.22 259.22 1185.4 269.094 1195.29C272.627 1176.24 275.448 1157.18 280.391 1138.13C282.514 1130.36 284.623 1123.31 286.745 1116.24C296.619 1085.18 309.327 1056.96 324.856 1028.74C338.263 1004.74 353.792 984.271 371.431 962.401C372.143 961.689 373.553 960.991 374.252 960.279C416.595 910.883 468.824 876.292 528.806 853.71C537.269 850.177 545.745 847.356 554.92 845.247C645.96 819.132 725.003 772.558 787.107 700.567C787.819 699.156 788.517 698.444 789.229 697.034L794.872 691.392C801.226 682.928 807.58 675.164 813.92 666.687C816.741 661.744 819.563 657.512 823.096 653.281C881.666 566.473 908.493 471.913 912.013 372.397L912 372.411Z" fill="#0A301D" fill-opacity="0.11"/>
<path d="M912.002 372.411C909.181 375.944 908.469 380.175 906.359 383.708C897.184 399.237 889.42 412.644 879.546 427.462C878.834 428.872 877.423 428.872 876.725 430.282C853.431 464.162 829.439 491.674 798.393 517.09C797.682 517.802 796.983 519.213 796.271 519.912C784.275 530.497 772.278 538.262 758.872 548.136C754.64 550.957 751.107 553.079 746.875 555.9C671.365 603.885 587.378 622.947 500.584 613.06C498.461 613.06 496.352 611.65 494.23 611.65C490.697 611.65 487.177 610.938 483.644 610.239C442 603.885 403.19 596.121 362.258 594.71C322.736 593.998 284.625 597.531 244.405 606.706C200.651 616.58 161.828 632.109 123.019 653.281C88.4405 672.33 58.7927 694.213 28.4462 719.616C19.9829 727.381 12.2183 735.145 3.74182 742.91C-10.3768 757.727 -23.7836 772.544 -36.4785 788.073C-25.181 809.245 -15.3071 830.416 -4.72145 852.299C7.27478 877.702 18.5723 901.695 29.8567 927.111C40.4424 908.761 50.3162 890.411 63.7362 872.772C65.1467 870.65 66.5573 867.828 67.9678 865.719C75.7324 856.544 81.3746 847.369 89.851 838.906C90.5629 837.495 91.2616 836.784 91.9735 835.373C96.917 829.731 101.847 824.075 107.503 818.433C109.625 817.023 111.734 815.612 113.145 813.49C123.019 801.493 134.316 792.318 145.614 782.431C160.431 770.435 173.838 761.26 190.079 749.962C191.489 749.251 192.201 749.251 193.612 748.552C211.962 735.844 230.312 727.38 250.073 718.205C252.196 716.795 255.017 716.795 257.126 716.083C271.245 710.441 285.35 704.785 300.181 701.265C300.892 701.265 302.303 699.855 303.002 699.855C307.945 698.445 312.177 698.444 317.12 697.034C317.832 697.034 319.243 695.624 319.941 695.624C337.58 692.091 353.821 689.269 371.459 687.859C380.634 687.147 389.81 687.147 398.985 687.147C440.629 686.435 481.561 692.789 523.192 687.859C539.42 686.448 554.25 684.326 570.478 680.806C596.593 674.452 620.585 667.399 644.578 657.512C651.631 653.979 657.985 651.158 665.037 648.337C665.749 647.625 667.16 646.927 667.859 646.215C722.197 620.1 768.073 584.111 809.704 539.646C813.237 535.414 816.757 531.881 820.29 527.65C827.343 519.186 833.697 510.71 840.749 502.247C842.16 500.124 843.57 497.303 844.981 495.194C873.917 455.672 895.787 416.151 912.028 372.397L912.002 372.411Z" fill="#0A301D" fill-opacity="0.11"/>
<path d="M912 372.411L903.537 380.874C902.126 381.586 901.414 382.285 900.004 382.997C883.064 399.224 865.426 411.933 844.953 425.339C843.543 426.051 842.831 426.051 841.42 426.75C828.712 435.925 816.017 442.279 802.61 448.633C801.898 449.345 800.488 450.044 799.789 450.756C795.558 452.878 790.614 454.987 786.382 457.11C772.976 462.752 760.268 468.407 746.162 471.927C744.04 472.639 741.93 474.049 739.808 474.748C715.104 481.801 690.413 487.456 664.996 489.565C649.467 490.976 633.938 491.688 618.422 491.688C584.542 490.277 551.375 484.635 518.207 474.049C504.801 469.818 492.092 464.176 478.686 458.52C452.571 445.812 427.88 432.405 401.765 417.588C399.642 416.177 396.821 416.178 394.712 414.767C394 414.055 392.59 413.356 391.891 412.644L381.305 408.413C380.593 407.701 379.183 407.002 378.484 406.29C362.955 399.936 348.138 393.582 332.608 387.94C319.9 383.708 307.904 380.887 295.209 377.355C286.746 374.533 278.269 373.822 269.094 371.712C255.688 368.179 243.691 366.769 230.284 365.358C219.699 364.646 209.113 363.948 198.527 363.236C182.3 362.524 166.058 363.236 149.831 363.948C51.0265 371 -42.8342 407.701 -122.576 464.861C-115.523 505.793 -109.868 546.014 -104.226 588.356C-102.815 596.82 -102.103 604.584 -99.9943 613.061C7.27318 498.029 174.535 435.925 331.198 481.089C338.251 483.211 344.605 485.32 351.671 487.443C379.895 497.317 404.599 511.435 432.823 521.322C457.527 529.786 482.93 536.14 509.045 539.673C527.396 541.795 545.034 543.206 563.384 543.206C576.791 542.494 590.198 542.494 603.605 541.083C610.657 540.372 617.723 538.961 625.488 538.262C639.606 536.14 651.603 532.62 665.708 529.799C674.883 527.677 682.648 524.855 691.111 522.746C704.518 518.515 717.226 513.571 730.633 507.929C746.162 500.876 760.979 493.81 775.797 485.347C803.322 469.119 828.026 452.878 852.019 431.707C853.429 430.995 854.141 430.296 855.552 429.584C876.011 411.234 895.074 393.596 912.013 372.424L912 372.411Z" fill="#0A301D" fill-opacity="0.11"/>
<path d="M912 372.411C909.179 373.123 907.057 374.533 904.235 375.944C885.885 382.298 867.535 387.94 847.774 392.883C842.132 394.294 837.188 395.006 831.546 396.416C776.495 407.714 724.977 409.823 670.638 402.059H666.407C592.307 390.761 526.67 363.947 467.388 316.661C466.676 315.949 465.977 314.539 465.266 313.84C451.147 303.966 440.561 291.957 428.565 280.672C427.154 279.262 425.744 277.14 424.333 275.03C423.622 274.318 422.211 273.62 421.512 272.908C419.39 270.087 417.281 267.266 415.158 264.445C414.446 263.733 413.036 263.034 412.337 262.322C401.04 247.505 391.878 234.098 380.58 219.979C355.876 191.043 331.185 167.75 298.716 145.88C297.305 145.168 296.593 145.168 295.183 144.469C292.362 142.347 289.541 140.237 286.719 138.115C273.313 131.062 261.316 123.298 247.91 117.656C247.198 116.944 245.787 116.245 245.089 115.533C142.053 67.5482 25.6102 62.6045 -83.0678 95.7721C-85.8889 96.484 -88.71 96.4842 -91.5311 97.8947C-102.829 151.535 -114.825 205.162 -124 259.501C-113.414 254.558 -103.54 248.203 -92.9416 243.273C-71.7702 233.399 -51.2976 225.635 -29.4275 218.569C-27.3051 217.857 -24.484 217.857 -22.3748 217.158C45.371 196.699 114.541 194.576 183.697 212.215C184.409 212.215 185.819 213.625 186.518 213.625C244.39 227.744 290.964 258.09 336.128 295.49C341.77 300.433 346.714 304.665 352.356 308.897C353.068 309.608 353.766 311.019 354.478 311.718C384.825 335.71 413.049 357.593 446.928 375.232C485.04 394.993 522.439 409.111 564.782 418.985C608.535 428.859 650.878 432.392 694.631 430.283C701.684 429.571 708.038 429.571 715.09 428.872C784.247 422.518 850.595 403.469 911.987 372.411H912Z" fill="#0A301D" fill-opacity="0.11"/>
<path d="M912.001 372.411C871.069 373.821 831.547 370.288 789.916 361.825C775.099 359.004 762.391 355.471 748.272 351.239C722.157 343.475 698.165 333.601 674.172 321.605C587.364 277.851 517.496 207.271 480.097 117.655C470.223 92.2524 463.157 66.1374 453.283 40.7344C444.108 16.0301 434.234 -7.25046 418.705 -30.5442C417.993 -31.9548 417.993 -32.6667 417.295 -34.0773C401.067 -60.1921 383.415 -81.3635 362.956 -103.945C361.545 -106.068 359.423 -107.478 357.314 -108.889C319.914 -147.699 277.572 -175.936 230.285 -199.928C227.464 -201.339 225.342 -201.339 222.521 -202.75C205.581 -211.925 188.641 -216.868 171.003 -223.921C169.592 -224.633 168.182 -223.921 166.771 -224.633C148.421 -230.987 130.782 -235.93 111.022 -239.45C108.201 -240.162 106.078 -240.861 103.257 -241.572C94.7937 -242.983 86.3173 -245.105 77.854 -245.105C66.5564 -228.878 55.9708 -212.637 43.2759 -195.71C41.8653 -193.588 41.1534 -191.478 39.7429 -189.356C20.6939 -163.241 3.75419 -138.55 -13.1855 -112.435C96.2043 -119.488 208.415 -91.2637 293.799 -16.452C298.743 -11.5085 303.673 -7.27684 308.617 -3.0452C321.325 9.6629 332.609 22.3578 343.907 36.4764C348.138 42.1186 351.671 47.0622 355.903 52.7044C377.786 85.1733 392.604 116.218 412.364 149.386C413.775 151.508 415.185 152.919 416.596 155.028C417.308 156.439 417.308 157.151 418.007 158.561C433.536 181.855 448.353 201.616 466.703 221.377C476.577 231.25 485.752 241.836 496.338 251.011C523.152 273.593 548.568 292.655 578.914 310.294C605.029 325.111 631.144 336.409 658.656 346.994C660.067 347.706 661.477 346.994 662.888 347.706C743.342 375.93 828.739 383.695 912.014 372.411H912.001Z" fill="#0A301D" fill-opacity="0.11"/>
<path d="M912.002 372.411C901.416 370.289 891.529 365.358 881.655 361.825C870.358 357.594 859.772 352.65 848.488 347.707C837.902 342.763 827.316 337.121 816.731 331.479C811.787 329.356 808.267 325.836 803.324 323.015C782.152 311.718 763.802 297.612 744.753 282.083C724.992 265.144 707.354 248.916 691.113 227.744C690.401 227.032 688.99 226.334 688.292 225.622C645.949 173.392 617.725 117.643 604.305 50.5955C602.894 43.5428 602.182 37.1887 600.772 30.136C600.06 23.0833 599.361 16.7292 598.65 10.3752C597.938 2.61058 597.938 -5.15408 597.239 -12.9187C596.527 -55.9733 599.361 -99.0147 593.007 -142.768C579.601 -229.576 544.311 -307.195 486.439 -374.243C485.727 -375.653 485.028 -376.365 484.316 -377.776C479.373 -382.719 475.141 -387.649 470.909 -392.593C456.791 -408.122 441.973 -420.817 426.444 -434.936C425.034 -435.648 423.623 -436.346 422.911 -437.058C420.09 -439.879 416.557 -442.7 413.736 -445.521C398.919 -456.819 385.512 -467.405 369.271 -477.278C360.096 -482.222 352.331 -487.864 343.156 -492.808C308.578 -467.405 274 -444.823 236.587 -418.708C229.535 -413.066 222.469 -408.834 215.416 -403.179C287.407 -379.885 351.619 -339.664 405.26 -284.614C461.721 -226.043 496.998 -154.764 509.007 -74.3103C514.65 -36.9111 517.471 -0.909211 528.768 35.0795C529.48 37.2019 529.48 40.023 530.179 42.1322C532.301 47.7744 533.712 54.1284 535.821 59.7706C541.463 75.2998 547.817 90.1171 554.171 104.934C554.883 105.646 555.582 107.057 556.294 107.756C562.648 121.874 569.002 133.87 578.177 147.277C578.889 148.688 578.889 149.4 579.587 150.81C655.81 271.484 777.894 345.584 911.989 372.411H912.002Z" fill="#0A301D" fill-opacity="0.11"/>
<path d="M912 372.411C899.292 362.537 887.296 353.362 876.011 342.064C873.889 339.942 871.78 339.243 869.657 337.121C854.128 320.893 840.023 306.774 825.904 289.136C818.139 279.262 811.087 270.087 804.021 259.501C792.723 241.863 782.849 224.923 773.674 206.573C763.8 185.401 755.324 164.23 749.682 140.936C749.682 140.224 748.271 138.814 748.271 138.115C734.864 87.3091 731.331 38.6123 739.808 -13.6174C741.218 -22.7926 742.629 -30.5571 744.751 -39.7322C744.751 -40.4441 746.162 -41.8547 746.162 -42.5533C748.284 -53.8509 751.804 -64.4366 754.625 -75.0223C768.744 -119.487 785.684 -161.118 793.435 -207.693V-211.924C819.55 -367.889 761.678 -521.744 656.52 -631.832C608.535 -615.604 559.838 -602.896 511.84 -588.079C539.365 -568.318 562.646 -545.736 586.652 -521.032C587.363 -520.32 588.062 -518.909 588.774 -517.499C600.77 -505.502 609.945 -492.794 620.531 -478.689C628.296 -467.391 634.65 -458.229 641.702 -446.932C648.056 -435.634 653.699 -425.049 659.341 -413.764C661.463 -409.533 663.572 -404.589 665.695 -400.358C684.744 -357.303 696.753 -312.139 700.273 -264.853C702.395 -232.384 701.684 -200.627 695.33 -167.459C690.386 -140.646 681.923 -118.064 677.691 -91.237C658.642 19.5634 684.045 124.722 748.258 219.281C753.201 226.334 756.721 231.989 761.665 238.33C772.962 252.448 782.836 265.143 795.544 277.851C796.256 278.563 796.955 280.673 797.667 281.384C832.957 316.674 869.657 347.72 912 372.424V372.411Z" fill="#0A301D" fill-opacity="0.11"/>
<path d="M907.768 372.411C901.414 360.414 894.362 349.117 888.008 337.121C880.243 321.591 873.19 306.062 867.548 289.834C865.426 283.48 864.015 277.838 861.194 271.484C860.482 270.073 861.194 268.663 860.482 267.252C839.311 203.738 834.367 138.814 844.953 71.7665C855.539 6.84185 882.352 -49.6195 924.695 -100.426C947.277 -127.239 969.859 -151.232 989.62 -181.578C1007.97 -209.802 1021.38 -237.328 1032.67 -268.386C1079.25 -399.646 1058.08 -545.736 991.03 -665H833.655C875.998 -614.893 908.467 -558.431 928.228 -494.917C928.94 -492.795 928.94 -489.974 929.639 -487.864C955.753 -400.358 950.098 -307.196 912 -224.633C908.467 -217.58 904.947 -211.226 901.414 -204.173C889.418 -182.29 876.011 -163.241 862.605 -141.358C847.075 -115.955 836.49 -91.2505 826.616 -63.725C823.795 -55.2618 820.974 -47.4972 818.851 -39.0207C806.143 8.96421 801.213 56.2506 804.733 104.947C811.785 202.341 849.198 294.791 907.768 372.424V372.411Z" fill="#0A301D" fill-opacity="0.11"/>
<path d="M912 372.41C902.825 325.124 899.292 277.838 903.537 229.853C904.249 223.499 904.948 216.446 905.659 210.092C916.245 123.996 948.714 44.9528 1005.87 -22.0943C1041.16 -63.0265 1082.1 -94.0717 1130.08 -118.077C1142.79 -124.431 1154.79 -130.786 1167.48 -138.537C1168.89 -139.249 1169.6 -139.249 1171.01 -139.947L1179.48 -146.302C1180.89 -147.013 1181.6 -147.013 1183.01 -147.712C1230.3 -180.88 1264.87 -216.17 1296.63 -264.155C1297.34 -265.565 1297.34 -266.277 1298.04 -267.688C1356.61 -357.317 1376.37 -459.64 1368.61 -561.266C1365.79 -562.676 1362.97 -564.087 1359.43 -565.497C1312.15 -585.258 1266.27 -606.43 1218.29 -625.479C1247.22 -529.495 1245.1 -423.639 1202.76 -330.49C1201.35 -327.669 1199.22 -324.848 1197.81 -322.026C1172.41 -270.509 1137.12 -228.166 1091.25 -192.177C1090.53 -191.465 1089.83 -190.055 1089.12 -189.356C1072.89 -177.36 1060.19 -165.364 1044.66 -152.656C1043.25 -150.533 1041.84 -148.424 1039.71 -147.013C1027.01 -136.428 1016.42 -124.431 1005.14 -112.435C1004.42 -111.025 1003.73 -110.313 1003.01 -108.902C989.607 -94.0848 979.021 -79.9663 968.435 -63.0265C967.724 -61.616 966.313 -61.616 965.614 -60.2054C878.806 72.465 868.933 229.141 911.974 372.41H912Z" fill="#0A301D" fill-opacity="0.11"/>
<path d="M912.001 372.411C927.53 265.144 974.104 162.806 1055.97 87.2961C1059.5 84.475 1063.02 81.6539 1066.55 78.121C1082.78 64.0023 1099.02 52.718 1117.36 40.7217C1118.77 40.0099 1119.48 40.0098 1120.89 39.3111C1137.83 28.7254 1154.77 20.2622 1172.41 12.4976C1173.82 11.7857 1174.53 12.4975 1175.94 11.7857C1178.77 10.3751 1182.3 8.96463 1185.12 7.55409C1192.88 4.73299 1199.94 2.61056 1207.7 -0.210529C1217.57 -3.03162 1227.46 -5.154 1237.34 -7.26323C1254.97 -11.4949 1271.22 -14.3161 1288.85 -16.4385C1307.2 -18.5609 1324.14 -22.7924 1342.49 -27.024C1346.03 -27.7359 1349.55 -28.4346 1353.08 -29.8452C1355.2 -30.557 1358.02 -30.5571 1360.13 -31.2558C1394.01 -41.8415 1424.36 -55.2482 1455.4 -72.8998C1466.7 -79.9525 1476.57 -85.6079 1487.16 -93.3594C1499.87 -103.233 1511.15 -111.71 1523.15 -121.584C1566.9 -159.695 1602.19 -202.736 1629.01 -253.555C1633.24 -261.32 1637.47 -267.674 1641 -275.438C1641.71 -276.849 1641.71 -278.259 1642.41 -279.67C1649.47 -292.378 1654.41 -304.374 1659.35 -317.781C1660.06 -319.192 1660.76 -319.904 1661.48 -321.314C1663.6 -326.956 1665.01 -331.9 1667.12 -337.542C1650.18 -353.77 1634.65 -370.71 1617.72 -387.649C1596.55 -408.821 1576.79 -429.992 1554.91 -449.753C1550.67 -416.585 1542.91 -384.828 1531.61 -353.071C1525.97 -338.953 1521.03 -325.546 1514.67 -312.139C1509.03 -301.553 1504.8 -290.968 1497.73 -280.382C1490.68 -269.796 1485.74 -260.621 1477.97 -250.747C1477.26 -249.337 1477.26 -248.625 1476.56 -247.214C1459.62 -223.921 1442.68 -204.16 1421.51 -185.111C1417.28 -181.578 1413.05 -178.058 1408.8 -173.813C1396.81 -163.228 1384.1 -154.764 1370.69 -145.589C1349.52 -132.182 1329.76 -122.295 1307.88 -113.12C1298 -109.587 1288.83 -106.067 1278.94 -102.534C1271.18 -100.412 1263.41 -97.591 1255.65 -95.4817C1253.52 -94.7699 1251.41 -93.3593 1249.29 -92.6606C1228.83 -87.0184 1210.48 -78.542 1190.72 -70.7774C1186.49 -68.655 1181.55 -66.5457 1177.32 -64.4233C1148.38 -48.8941 1120.85 -33.365 1095.45 -10.7831C1093.33 -9.37251 1091.22 -7.96202 1089.1 -6.55147C1052.4 24.5069 1023.46 57.6745 997.358 98.6067C995.948 100.729 993.825 102.838 992.415 104.961C968.422 145.181 950.771 184.004 936.665 227.757C921.848 275.742 914.782 323.029 911.961 372.437L912.001 372.411Z" fill="#0A301D" fill-opacity="0.11"/>
<path d="M912.002 372.41C914.124 368.877 916.234 365.357 917.644 361.825C923.286 351.239 928.942 341.365 935.994 330.766C945.868 315.949 954.345 303.241 965.629 289.834C968.45 287.013 970.573 284.192 973.394 281.371C974.106 280.659 974.804 279.248 975.516 277.838C1000.92 248.203 1027.03 224.197 1059.5 200.917C1060.91 200.205 1061.63 200.205 1063.04 199.506C1101.15 171.981 1140.67 155.041 1184.42 142.346C1209.82 135.293 1234.53 131.761 1260.64 130.35C1303.7 128.228 1344.63 134.582 1388.38 142.346C1403.2 145.167 1417.32 147.29 1432.14 148.7C1446.95 150.111 1462.48 150.823 1477.3 150.111C1488.6 150.111 1499.88 150.823 1511.18 148.7H1518.95C1602.22 139.525 1679.14 112 1749.72 61.1936C1751.84 59.783 1754.66 58.3725 1756.77 56.962C1796.99 26.6155 1830.18 -5.14158 1860.52 -42.5408C1846.4 -68.6557 1835.12 -95.4693 1822.41 -122.283C1812.54 -142.044 1803.36 -161.805 1794.19 -181.565C1749.02 -96.8799 1681.28 -24.8893 1593.76 18.1521C1569.05 30.1483 1544.36 39.3235 1517.53 46.3762C1504.83 49.1973 1492.83 52.0184 1480.14 54.1409C1441.33 59.783 1403.91 59.0843 1365.8 56.2632C1318.52 52.7303 1271.94 58.3857 1225.37 71.7925C1178.79 85.1993 1138.56 104.96 1096.93 133.184C1095.52 133.896 1095.52 135.307 1094.11 136.005C1078.58 146.591 1065.17 157.177 1051.76 169.885C1050.35 170.597 1049.64 171.295 1048.23 172.007C986.84 228.469 942.375 296.926 912.028 372.436L912.002 372.41Z" fill="#0A301D" fill-opacity="0.11"/>
<path d="M912.002 372.411C991.744 298.311 1099.02 249.614 1209.11 253.845C1240.87 255.256 1271.93 260.2 1302.97 270.073C1346.73 284.192 1384.84 307.473 1425.77 329.356C1427.89 330.766 1430.71 330.766 1432.82 332.177C1433.53 332.889 1434.95 333.588 1435.64 334.299C1440.59 336.422 1444.82 337.832 1449.76 339.942C1450.47 340.653 1451.89 341.352 1452.58 342.064C1543.62 382.996 1642.43 393.582 1743.34 371.699C1819.56 355.471 1886.6 324.412 1947.29 279.96C1937.42 231.264 1931.76 181.156 1924.71 131.761C1843.56 217.158 1731.34 274.318 1612.78 278.55C1578.2 279.96 1545.03 275.729 1509.74 268.676C1509.03 268.676 1507.62 267.266 1506.92 267.266C1489.98 264.444 1475.17 258.802 1459.64 253.147C1438.47 244.683 1419.42 234.797 1398.24 226.333C1374.25 217.87 1350.96 211.516 1325.56 207.284C1300.15 203.751 1275.45 201.642 1250.05 202.341C1118.79 205.874 996.687 274.331 912.002 372.424V372.411Z" fill="#0A301D" fill-opacity="0.11"/>
<path d="M912.002 372.411C950.113 358.292 988.224 349.117 1029.16 342.776C1048.92 339.955 1068.68 339.243 1088.44 338.544C1106.79 338.544 1124.43 339.256 1142.78 341.366C1161.83 343.488 1179.48 347.008 1198.53 351.239C1247.22 363.236 1288.86 380.874 1331.2 409.81C1356.6 427.448 1377.77 445.1 1397.53 467.682C1398.24 468.394 1399.66 469.093 1400.35 469.804C1403.18 474.036 1406 476.857 1409.53 480.39C1420.12 493.797 1428.58 506.505 1439.16 519.912C1453.28 536.852 1466.69 552.381 1483.63 565.788C1484.34 566.499 1485.04 567.91 1485.75 568.609C1530.22 606.72 1578.91 634.245 1634.66 650.473C1636.79 651.185 1639.61 652.595 1641.72 653.294C1732.76 679.409 1827.33 674.465 1915.53 647.652C1927.53 594.011 1938.83 539.673 1948 485.334C1942.36 488.867 1936.7 491.688 1931.06 495.207C1928.94 496.618 1926.12 496.618 1924.01 498.028C1837.2 542.494 1739.82 558.01 1643.84 534.017C1643.13 534.017 1641.72 532.607 1641.02 532.607C1601.5 522.733 1568.33 506.492 1533.75 484.622C1531.63 483.211 1530.22 481.801 1528.81 480.39C1507.63 466.983 1491.41 451.454 1472.34 435.925C1451.17 418.985 1432.82 404.168 1410.24 389.351C1384.13 373.123 1358.72 360.415 1331.2 349.13C1327.66 347.008 1324.15 345.597 1320.61 344.187C1319.2 343.475 1317.79 344.187 1316.38 343.475C1265.57 324.426 1212.63 315.251 1159.01 314.539C1073.61 313.827 988.923 334.998 912.002 372.411Z" fill="#0A301D" fill-opacity="0.11"/>
<path d="M912.002 372.411C991.744 370.288 1070.79 385.817 1143.48 420.396C1144.19 421.107 1145.6 421.806 1146.3 422.518C1168.18 431.693 1186.52 444.401 1206.99 457.808C1218.99 466.271 1228.87 475.447 1240.87 484.622C1241.58 485.334 1242.28 486.744 1242.99 487.443C1302.27 539.672 1341.08 605.296 1362.97 680.806C1367.91 699.157 1374.27 716.795 1382.73 734.447C1389.08 747.853 1396.14 759.849 1403.2 773.256C1404.61 775.379 1406.02 776.789 1407.43 778.898C1463.18 872.06 1549.99 933.452 1649.49 968.03C1650.9 968.742 1652.31 968.03 1653.73 968.742C1684.07 980.04 1715.12 985.682 1746.18 990.625C1776.52 946.16 1808.28 902.407 1837.21 857.243C1789.93 861.475 1742.64 857.243 1695.37 845.247C1634.68 830.43 1581.04 805.027 1533.05 764.094C1532.34 763.383 1531.64 761.972 1530.93 761.273C1527.4 758.452 1523.88 755.631 1520.34 752.81C1507.63 740.102 1495.64 728.106 1484.35 714C1460.36 682.942 1443.42 651.897 1425.07 618.017C1396.85 567.211 1362.97 524.855 1319.21 486.757C1317.8 486.045 1316.39 485.347 1315.68 484.635C1307.22 476.172 1298.04 470.516 1288.87 463.463C1279.69 456.411 1271.93 450.755 1262.75 445.113C1154.77 378.066 1032.69 357.607 912.002 372.424V372.411Z" fill="#0A301D" fill-opacity="0.11"/>
<path d="M912.002 372.411C937.405 380.874 962.109 390.761 986.814 402.757C995.989 407.701 1005.16 412.631 1014.34 417.574C1029.16 426.038 1041.86 435.213 1055.98 445.1C1062.34 450.043 1067.28 453.563 1073.62 458.507C1085.62 468.38 1096.2 477.556 1106.79 488.141C1114.55 496.605 1121.61 502.958 1128.67 512.134C1129.38 512.845 1130.79 513.544 1131.49 514.256C1161.84 549.546 1184.42 587.657 1201.36 630C1211.95 657.526 1219 685.051 1223.24 714.686C1229.6 760.561 1224.66 805.013 1227.48 850.889C1228.89 869.938 1231.01 887.589 1234.53 906.638C1236.65 919.346 1240.17 930.631 1242.99 943.339C1249.35 964.51 1255.7 984.271 1264.88 1004.03C1267.7 1008.98 1269.11 1013.21 1271.23 1018.15C1274.76 1025.2 1278.28 1031.56 1281.82 1038.61C1290.28 1054.84 1300.17 1068.96 1310.75 1085.18C1311.46 1086.6 1312.87 1086.6 1313.57 1088.01C1326.28 1107.77 1341.1 1123.99 1356.63 1140.93C1369.34 1154.34 1381.33 1165.64 1394.74 1177.63C1396.15 1178.35 1397.56 1179.05 1398.27 1179.76C1410.27 1191.75 1423.67 1200.22 1437.79 1210.82C1452.61 1220.69 1466.02 1229.86 1480.85 1237.63C1523.9 1207.99 1566.24 1177.65 1609.29 1148.71C1553.54 1130.36 1502.72 1102.84 1456.14 1064.73C1390.51 1010.39 1343.93 942.64 1323.47 859.365C1323.47 858.654 1322.06 857.243 1322.06 856.544C1316.42 831.141 1312.89 807.149 1310.07 781.732C1305.12 735.857 1293.13 692.816 1274.78 650.473C1274.06 649.761 1273.37 648.35 1272.65 647.652C1235.95 565.787 1177.38 499.452 1099.05 449.345C1096.93 447.934 1094.82 445.812 1092.7 444.401C1035.54 409.111 975.542 386.529 912.028 372.424L912.002 372.411Z" fill="#0A301D" fill-opacity="0.11"/>
<path d="M912 372.411C986.811 430.283 1048.2 507.204 1073.61 601.064C1073.61 601.776 1075.02 603.186 1075.02 603.885C1075.73 606.008 1075.73 608.829 1076.43 610.938C1077.14 611.65 1077.84 613.06 1077.84 613.759C1086.3 649.748 1089.83 683.627 1088.42 719.616C1086.3 773.256 1068.66 823.363 1051.02 873.458C1036.21 917.923 1027.03 963.785 1024.91 1010.37C1022.79 1067.53 1029.85 1123.99 1048.9 1178.33C1049.61 1179.74 1048.9 1181.15 1049.61 1182.56C1075.02 1255.97 1115.25 1321.59 1167.47 1377.34C1215.45 1361.81 1264.15 1347.7 1312.85 1333.59C1274.73 1306.06 1242.28 1274.3 1212.63 1236.19C1175.93 1188.21 1150.53 1138.1 1135.71 1080.23C1131.48 1062.59 1127.94 1045.65 1125.84 1028C1123.01 1003.29 1122.3 978.603 1123.71 953.898C1126.53 923.552 1132.89 894.616 1139.94 864.981C1153.35 813.463 1156.17 763.356 1147.71 711.14V706.908C1132.18 605.282 1082.78 517.776 1009.38 446.497C1005.15 442.964 1000.92 439.444 996.672 435.911C970.557 411.207 941.621 391.446 911.986 372.397L912 372.411Z" fill="#0A301D" fill-opacity="0.11"/>
<path d="M916.244 372.411C928.241 392.171 938.128 412.631 948.001 433.802C955.766 452.153 961.408 469.791 967.762 488.853C968.474 491.674 968.474 493.797 969.173 496.618C993.165 582.015 990.344 671.644 955.766 752.797C955.054 754.207 955.766 754.919 955.054 756.329C948.7 771.859 940.237 786.676 931.76 801.493C921.175 819.844 909.179 834.661 895.772 850.889C892.239 854.422 889.418 857.243 886.597 861.474C885.186 863.597 883.064 864.296 881.653 866.418C880.243 868.54 878.832 869.951 877.421 872.06C876.71 872.772 875.299 873.471 874.6 874.183C863.303 887.59 853.429 899.586 842.843 914.403C829.436 934.164 818.851 951.802 808.964 972.275C787.081 1017.44 774.386 1064.73 768.744 1114.83C758.158 1218.58 782.862 1321.62 833.668 1410.53C840.721 1409.82 848.485 1410.53 855.551 1410.53C900.715 1409.82 945.879 1410.53 991.056 1410.53C933.184 1343.49 892.964 1262.33 881.666 1172.7C874.614 1116.95 878.845 1061.21 897.195 1008.28C909.904 972.288 926.131 940.531 948.001 908.062C950.124 904.529 952.233 901.708 954.356 898.887C955.067 897.477 955.067 896.765 955.766 895.354C983.291 853.011 999.519 811.367 1010.82 762.684C1017.87 730.215 1020.69 699.169 1020.69 667.412C1019.98 619.427 1012.23 572.141 997.397 526.265C979.047 469.804 950.823 419.697 916.244 372.424V372.411Z" fill="#0A301D" fill-opacity="0.11"/>
</g>
<defs>
<clipPath id="clip0_3_13201">
<rect width="1825" height="420" fill="white"/>
</clipPath>
</defs>
</svg>
