<svg width="400" height="400" viewBox="0 0 400 400" fill="none" xmlns="http://www.w3.org/2000/svg">
<circle cx="200" cy="200" r="200" fill="#12462B" fill-opacity="0.1"/>
<circle cx="200" cy="200" r="189.5" stroke="#12462B" stroke-opacity="0.6" stroke-width="21"/>
<path d="M159.409 109.832H171.772V132.506H159.409V109.832Z" fill="#12462B" fill-opacity="0.6"/>
<path d="M225.336 109.832H237.699V132.506H225.336V109.832Z" fill="#12462B" fill-opacity="0.6"/>
<path d="M192.373 98H204.736V120.674H192.373V98Z" fill="#12462B" fill-opacity="0.6"/>
<path d="M286.426 161.574H266.416V154.041H130.693V173.964H286.426C296.467 173.964 304.637 182.152 304.637 192.215C304.637 198.552 301.435 204.339 296.071 207.695L265.551 226.795C266.123 223.252 266.416 219.649 266.416 216.017V186.354H130.693V216.017C130.693 232.46 136.668 248.307 147.519 260.64L154.562 268.646H242.547L249.59 260.64C253.785 255.872 257.248 250.576 259.922 244.926L302.62 218.204C311.624 212.569 317 202.854 317 192.215C317 175.319 303.285 161.574 286.426 161.574Z" fill="#12462B" fill-opacity="0.6"/>
<path d="M106 287.161L116.16 302H280.948L291.108 287.161V281.036H106V287.161Z" fill="#12462B" fill-opacity="0.6"/>
<path d="M265.916 161.574V162.074H266.416H286.426C303.007 162.074 316.5 175.594 316.5 192.215C316.5 202.682 311.212 212.237 302.355 217.781L259.656 244.502L259.532 244.58L259.47 244.712C256.816 250.32 253.378 255.577 249.215 260.31L242.321 268.146H154.788L147.894 260.31L147.519 260.64L147.894 260.31C137.124 248.068 131.193 232.338 131.193 216.017V186.854H265.916V216.017C265.916 219.622 265.625 223.199 265.058 226.715L264.882 227.803L265.817 227.219L296.337 208.119C301.846 204.671 305.137 198.724 305.137 192.215C305.137 181.877 296.745 173.464 286.426 173.464H131.193V154.541H265.916V161.574ZM159.909 110.332H171.272V132.006H159.909V110.332ZM225.836 110.332H237.199V132.006H225.836V110.332ZM192.873 98.5H204.236V120.174H192.873V98.5ZM116.424 301.5L106.5 287.006V281.536H290.608V287.006L280.685 301.5H116.424Z" stroke="#12462B" stroke-opacity="0.6"/>
</svg>
