<svg width="3360" height="126" viewBox="0 0 3360 126" fill="none" xmlns="http://www.w3.org/2000/svg">
<path d="M0 0H42V42H0V0Z" fill="#16624E"/>
<path d="M0 42H42V84H0V42Z" fill="#F9CEE1"/>
<path d="M42 42H84V84H42V42Z" fill="#16624E"/>
<path d="M42 0H84V42H42V0Z" fill="#F9CEE1"/>
<path d="M84 0H126V42H84V0Z" fill="#16624E"/>
<path d="M84 42H126V84H84V42Z" fill="#F9CEE1"/>
<path d="M126 42H168V84H126V42Z" fill="#16624E"/>
<path d="M126 0H168V42H126V0Z" fill="#F9CEE1"/>
<path d="M168 0H210V42H168V0Z" fill="#16624E"/>
<path d="M168 42H210V84H168V42Z" fill="#F9CEE1"/>
<path d="M210 42H252V84H210V42Z" fill="#16624E"/>
<path d="M210 0H252V42H210V0Z" fill="#F9CEE1"/>
<path d="M252 0H294V42H252V0Z" fill="#16624E"/>
<path d="M252 42H294V84H252V42Z" fill="#F9CEE1"/>
<path d="M294 42H336V84H294V42Z" fill="#16624E"/>
<path d="M294 0H336V42H294V0Z" fill="#F9CEE1"/>
<path d="M336 0H378V42H336V0Z" fill="#16624E"/>
<path d="M336 42H378V84H336V42Z" fill="#F9CEE1"/>
<path d="M378 42H420V84H378V42Z" fill="#16624E"/>
<path d="M378 0H420V42H378V0Z" fill="#F9CEE1"/>
<path d="M420 0H462V42H420V0Z" fill="#16624E"/>
<path d="M420 42H462V84H420V42Z" fill="#F9CEE1"/>
<path d="M462 42H504V84H462V42Z" fill="#16624E"/>
<path d="M462 0H504V42H462V0Z" fill="#F9CEE1"/>
<path d="M504 0H546V42H504V0Z" fill="#16624E"/>
<path d="M504 42H546V84H504V42Z" fill="#F9CEE1"/>
<path d="M546 42H588V84H546V42Z" fill="#16624E"/>
<path d="M546 0H588V42H546V0Z" fill="#F9CEE1"/>
<path d="M588 0H630V42H588V0Z" fill="#16624E"/>
<path d="M588 42H630V84H588V42Z" fill="#F9CEE1"/>
<path d="M630 42H672V84H630V42Z" fill="#16624E"/>
<path d="M630 0H672V42H630V0Z" fill="#F9CEE1"/>
<path d="M672 0H714V42H672V0Z" fill="#16624E"/>
<path d="M672 42H714V84H672V42Z" fill="#F9CEE1"/>
<path d="M714 42H756V84H714V42Z" fill="#16624E"/>
<path d="M714 0H756V42H714V0Z" fill="#F9CEE1"/>
<path d="M756 0H798V42H756V0Z" fill="#16624E"/>
<path d="M756 42H798V84H756V42Z" fill="#F9CEE1"/>
<path d="M798 42H840V84H798V42Z" fill="#16624E"/>
<path d="M798 0H840V42H798V0Z" fill="#F9CEE1"/>
<path d="M840 0H882V42H840V0Z" fill="#16624E"/>
<path d="M840 42H882V84H840V42Z" fill="#F9CEE1"/>
<path d="M882 42H924V84H882V42Z" fill="#16624E"/>
<path d="M882 0H924V42H882V0Z" fill="#F9CEE1"/>
<path d="M924 0H966V42H924V0Z" fill="#16624E"/>
<path d="M924 42H966V84H924V42Z" fill="#F9CEE1"/>
<path d="M966 42H1008V84H966V42Z" fill="#16624E"/>
<path d="M966 0H1008V42H966V0Z" fill="#F9CEE1"/>
<path d="M1008 0H1050V42H1008V0Z" fill="#16624E"/>
<path d="M1008 42H1050V84H1008V42Z" fill="#F9CEE1"/>
<path d="M1050 42H1092V84H1050V42Z" fill="#16624E"/>
<path d="M1050 0H1092V42H1050V0Z" fill="#F9CEE1"/>
<path d="M1092 0H1134V42H1092V0Z" fill="#16624E"/>
<path d="M1092 42H1134V84H1092V42Z" fill="#F9CEE1"/>
<path d="M1134 42H1176V84H1134V42Z" fill="#16624E"/>
<path d="M1134 0H1176V42H1134V0Z" fill="#F9CEE1"/>
<path d="M1176 0H1218V42H1176V0Z" fill="#16624E"/>
<path d="M1176 42H1218V84H1176V42Z" fill="#F9CEE1"/>
<path d="M1218 42H1260V84H1218V42Z" fill="#16624E"/>
<path d="M1218 0H1260V42H1218V0Z" fill="#F9CEE1"/>
<path d="M1260 0H1302V42H1260V0Z" fill="#16624E"/>
<path d="M1260 42H1302V84H1260V42Z" fill="#F9CEE1"/>
<path d="M1302 42H1344V84H1302V42Z" fill="#16624E"/>
<path d="M1302 0H1344V42H1302V0Z" fill="#F9CEE1"/>
<path d="M1344 0H1386V42H1344V0Z" fill="#16624E"/>
<path d="M1344 42H1386V84H1344V42Z" fill="#F9CEE1"/>
<path d="M1386 42H1428V84H1386V42Z" fill="#16624E"/>
<path d="M1386 0H1428V42H1386V0Z" fill="#F9CEE1"/>
<path d="M1428 0H1470V42H1428V0Z" fill="#16624E"/>
<path d="M1428 42H1470V84H1428V42Z" fill="#F9CEE1"/>
<path d="M1470 42H1512V84H1470V42Z" fill="#16624E"/>
<path d="M1470 0H1512V42H1470V0Z" fill="#F9CEE1"/>
<path d="M1512 0H1554V42H1512V0Z" fill="#16624E"/>
<path d="M1512 42H1554V84H1512V42Z" fill="#F9CEE1"/>
<path d="M1554 42H1596V84H1554V42Z" fill="#16624E"/>
<path d="M1554 0H1596V42H1554V0Z" fill="#F9CEE1"/>
<path d="M1596 0H1638V42H1596V0Z" fill="#16624E"/>
<path d="M1596 42H1638V84H1596V42Z" fill="#F9CEE1"/>
<path d="M1638 42H1680V84H1638V42Z" fill="#16624E"/>
<path d="M1638 0H1680V42H1638V0Z" fill="#F9CEE1"/>
<path d="M1680 0H1722V42H1680V0Z" fill="#16624E"/>
<path d="M1680 42H1722V84H1680V42Z" fill="#F9CEE1"/>
<path d="M1722 42H1764V84H1722V42Z" fill="#16624E"/>
<path d="M1722 0H1764V42H1722V0Z" fill="#F9CEE1"/>
<path d="M1764 0H1806V42H1764V0Z" fill="#16624E"/>
<path d="M1764 42H1806V84H1764V42Z" fill="#F9CEE1"/>
<path d="M1806 42H1848V84H1806V42Z" fill="#16624E"/>
<path d="M1806 0H1848V42H1806V0Z" fill="#F9CEE1"/>
<path d="M1848 0H1890V42H1848V0Z" fill="#16624E"/>
<path d="M1848 42H1890V84H1848V42Z" fill="#F9CEE1"/>
<path d="M1890 42H1932V84H1890V42Z" fill="#16624E"/>
<path d="M1890 0H1932V42H1890V0Z" fill="#F9CEE1"/>
<path d="M1932 0H1974V42H1932V0Z" fill="#16624E"/>
<path d="M1932 42H1974V84H1932V42Z" fill="#F9CEE1"/>
<path d="M1974 42H2016V84H1974V42Z" fill="#16624E"/>
<path d="M1974 0H2016V42H1974V0Z" fill="#F9CEE1"/>
<path d="M2016 0H2058V42H2016V0Z" fill="#16624E"/>
<path d="M2016 42H2058V84H2016V42Z" fill="#F9CEE1"/>
<path d="M2058 42H2100V84H2058V42Z" fill="#16624E"/>
<path d="M2058 0H2100V42H2058V0Z" fill="#F9CEE1"/>
<path d="M2100 0H2142V42H2100V0Z" fill="#16624E"/>
<path d="M2100 42H2142V84H2100V42Z" fill="#F9CEE1"/>
<path d="M2142 42H2184V84H2142V42Z" fill="#16624E"/>
<path d="M2142 0H2184V42H2142V0Z" fill="#F9CEE1"/>
<path d="M2184 0H2226V42H2184V0Z" fill="#16624E"/>
<path d="M2184 42H2226V84H2184V42Z" fill="#F9CEE1"/>
<path d="M2226 42H2268V84H2226V42Z" fill="#16624E"/>
<path d="M2226 0H2268V42H2226V0Z" fill="#F9CEE1"/>
<path d="M2268 0H2310V42H2268V0Z" fill="#16624E"/>
<path d="M2268 42H2310V84H2268V42Z" fill="#F9CEE1"/>
<path d="M2310 42H2352V84H2310V42Z" fill="#16624E"/>
<path d="M2310 0H2352V42H2310V0Z" fill="#F9CEE1"/>
<path d="M2352 0H2394V42H2352V0Z" fill="#16624E"/>
<path d="M2352 42H2394V84H2352V42Z" fill="#F9CEE1"/>
<path d="M2394 42H2436V84H2394V42Z" fill="#16624E"/>
<path d="M2394 0H2436V42H2394V0Z" fill="#F9CEE1"/>
<path d="M2436 0H2478V42H2436V0Z" fill="#16624E"/>
<path d="M2436 42H2478V84H2436V42Z" fill="#F9CEE1"/>
<path d="M2478 42H2520V84H2478V42Z" fill="#16624E"/>
<path d="M2478 0H2520V42H2478V0Z" fill="#F9CEE1"/>
<path d="M2520 0H2562V42H2520V0Z" fill="#16624E"/>
<path d="M2520 42H2562V84H2520V42Z" fill="#F9CEE1"/>
<path d="M2562 42H2604V84H2562V42Z" fill="#16624E"/>
<path d="M2562 0H2604V42H2562V0Z" fill="#F9CEE1"/>
<path d="M2604 0H2646V42H2604V0Z" fill="#16624E"/>
<path d="M2604 42H2646V84H2604V42Z" fill="#F9CEE1"/>
<path d="M2646 42H2688V84H2646V42Z" fill="#16624E"/>
<path d="M2646 0H2688V42H2646V0Z" fill="#F9CEE1"/>
<path d="M0 84H42V126H0V84Z" fill="#16624E"/>
<path d="M42 84H84V126H42V84Z" fill="#F9CEE1"/>
<path d="M84 84H126V126H84V84Z" fill="#16624E"/>
<path d="M126 84H168V126H126V84Z" fill="#F9CEE1"/>
<path d="M168 84H210V126H168V84Z" fill="#16624E"/>
<path d="M210 84H252V126H210V84Z" fill="#F9CEE1"/>
<path d="M252 84H294V126H252V84Z" fill="#16624E"/>
<path d="M294 84H336V126H294V84Z" fill="#F9CEE1"/>
<path d="M336 84H378V126H336V84Z" fill="#16624E"/>
<path d="M378 84H420V126H378V84Z" fill="#F9CEE1"/>
<path d="M420 84H462V126H420V84Z" fill="#16624E"/>
<path d="M462 84H504V126H462V84Z" fill="#F9CEE1"/>
<path d="M504 84H546V126H504V84Z" fill="#16624E"/>
<path d="M546 84H588V126H546V84Z" fill="#F9CEE1"/>
<path d="M588 84H630V126H588V84Z" fill="#16624E"/>
<path d="M630 84H672V126H630V84Z" fill="#F9CEE1"/>
<path d="M672 84H714V126H672V84Z" fill="#16624E"/>
<path d="M714 84H756V126H714V84Z" fill="#F9CEE1"/>
<path d="M756 84H798V126H756V84Z" fill="#16624E"/>
<path d="M798 84H840V126H798V84Z" fill="#F9CEE1"/>
<path d="M840 84H882V126H840V84Z" fill="#16624E"/>
<path d="M882 84H924V126H882V84Z" fill="#F9CEE1"/>
<path d="M924 84H966V126H924V84Z" fill="#16624E"/>
<path d="M966 84H1008V126H966V84Z" fill="#F9CEE1"/>
<path d="M1008 84H1050V126H1008V84Z" fill="#16624E"/>
<path d="M1050 84H1092V126H1050V84Z" fill="#F9CEE1"/>
<path d="M1092 84H1134V126H1092V84Z" fill="#16624E"/>
<path d="M1134 84H1176V126H1134V84Z" fill="#F9CEE1"/>
<path d="M1176 84H1218V126H1176V84Z" fill="#16624E"/>
<path d="M1218 84H1260V126H1218V84Z" fill="#F9CEE1"/>
<path d="M1260 84H1302V126H1260V84Z" fill="#16624E"/>
<path d="M1302 84H1344V126H1302V84Z" fill="#F9CEE1"/>
<path d="M1344 84H1386V126H1344V84Z" fill="#16624E"/>
<path d="M1386 84H1428V126H1386V84Z" fill="#F9CEE1"/>
<path d="M1428 84H1470V126H1428V84Z" fill="#16624E"/>
<path d="M1470 84H1512V126H1470V84Z" fill="#F9CEE1"/>
<path d="M1512 84H1554V126H1512V84Z" fill="#16624E"/>
<path d="M1554 84H1596V126H1554V84Z" fill="#F9CEE1"/>
<path d="M1596 84H1638V126H1596V84Z" fill="#16624E"/>
<path d="M1638 84H1680V126H1638V84Z" fill="#F9CEE1"/>
<path d="M1680 84H1722V126H1680V84Z" fill="#16624E"/>
<path d="M1722 84H1764V126H1722V84Z" fill="#F9CEE1"/>
<path d="M1764 84H1806V126H1764V84Z" fill="#16624E"/>
<path d="M1806 84H1848V126H1806V84Z" fill="#F9CEE1"/>
<path d="M1848 84H1890V126H1848V84Z" fill="#16624E"/>
<path d="M1890 84H1932V126H1890V84Z" fill="#F9CEE1"/>
<path d="M1932 84H1974V126H1932V84Z" fill="#16624E"/>
<path d="M1974 84H2016V126H1974V84Z" fill="#F9CEE1"/>
<path d="M2016 84H2058V126H2016V84Z" fill="#16624E"/>
<path d="M2058 84H2100V126H2058V84Z" fill="#F9CEE1"/>
<path d="M2100 84H2142V126H2100V84Z" fill="#16624E"/>
<path d="M2142 84H2184V126H2142V84Z" fill="#F9CEE1"/>
<path d="M2184 84H2226V126H2184V84Z" fill="#16624E"/>
<path d="M2226 84H2268V126H2226V84Z" fill="#F9CEE1"/>
<path d="M2268 84H2310V126H2268V84Z" fill="#16624E"/>
<path d="M2310 84H2352V126H2310V84Z" fill="#F9CEE1"/>
<path d="M2352 84H2394V126H2352V84Z" fill="#16624E"/>
<path d="M2394 84H2436V126H2394V84Z" fill="#F9CEE1"/>
<path d="M2436 84H2478V126H2436V84Z" fill="#16624E"/>
<path d="M2478 84H2520V126H2478V84Z" fill="#F9CEE1"/>
<path d="M2520 84H2562V126H2520V84Z" fill="#16624E"/>
<path d="M2562 84H2604V126H2562V84Z" fill="#F9CEE1"/>
<path d="M2604 84H2646V126H2604V84Z" fill="#16624E"/>
<path d="M2646 84H2688V126H2646V84Z" fill="#F9CEE1"/>
<path d="M2688 0H2730V42H2688V0Z" fill="#16624E"/>
<path d="M2688 42H2730V84H2688V42Z" fill="#F9CEE1"/>
<path d="M2730 42H2772V84H2730V42Z" fill="#16624E"/>
<path d="M2730 0H2772V42H2730V0Z" fill="#F9CEE1"/>
<path d="M2772 0H2814V42H2772V0Z" fill="#16624E"/>
<path d="M2772 42H2814V84H2772V42Z" fill="#F9CEE1"/>
<path d="M2814 42H2856V84H2814V42Z" fill="#16624E"/>
<path d="M2814 0H2856V42H2814V0Z" fill="#F9CEE1"/>
<path d="M2856 0H2898V42H2856V0Z" fill="#16624E"/>
<path d="M2856 42H2898V84H2856V42Z" fill="#F9CEE1"/>
<path d="M2898 42H2940V84H2898V42Z" fill="#16624E"/>
<path d="M2898 0H2940V42H2898V0Z" fill="#F9CEE1"/>
<path d="M2940 0H2982V42H2940V0Z" fill="#16624E"/>
<path d="M2940 42H2982V84H2940V42Z" fill="#F9CEE1"/>
<path d="M2982 42H3024V84H2982V42Z" fill="#16624E"/>
<path d="M2982 0H3024V42H2982V0Z" fill="#F9CEE1"/>
<path d="M3024 0H3066V42H3024V0Z" fill="#16624E"/>
<path d="M3024 42H3066V84H3024V42Z" fill="#F9CEE1"/>
<path d="M3066 42H3108V84H3066V42Z" fill="#16624E"/>
<path d="M3066 0H3108V42H3066V0Z" fill="#F9CEE1"/>
<path d="M3108 0H3150V42H3108V0Z" fill="#16624E"/>
<path d="M3108 42H3150V84H3108V42Z" fill="#F9CEE1"/>
<path d="M3150 42H3192V84H3150V42Z" fill="#16624E"/>
<path d="M3150 0H3192V42H3150V0Z" fill="#F9CEE1"/>
<path d="M3192 0H3234V42H3192V0Z" fill="#16624E"/>
<path d="M3192 42H3234V84H3192V42Z" fill="#F9CEE1"/>
<path d="M3234 42H3276V84H3234V42Z" fill="#16624E"/>
<path d="M3234 0H3276V42H3234V0Z" fill="#F9CEE1"/>
<path d="M3276 0H3318V42H3276V0Z" fill="#16624E"/>
<path d="M3276 42H3318V84H3276V42Z" fill="#F9CEE1"/>
<path d="M3318 42H3360V84H3318V42Z" fill="#16624E"/>
<path d="M3318 0H3360V42H3318V0Z" fill="#F9CEE1"/>
<path d="M2688 84H2730V126H2688V84Z" fill="#16624E"/>
<path d="M2730 84H2772V126H2730V84Z" fill="#F9CEE1"/>
<path d="M2772 84H2814V126H2772V84Z" fill="#16624E"/>
<path d="M2814 84H2856V126H2814V84Z" fill="#F9CEE1"/>
<path d="M2856 84H2898V126H2856V84Z" fill="#16624E"/>
<path d="M2898 84H2940V126H2898V84Z" fill="#F9CEE1"/>
<path d="M2940 84H2982V126H2940V84Z" fill="#16624E"/>
<path d="M2982 84H3024V126H2982V84Z" fill="#F9CEE1"/>
<path d="M3024 84H3066V126H3024V84Z" fill="#16624E"/>
<path d="M3066 84H3108V126H3066V84Z" fill="#F9CEE1"/>
<path d="M3108 84H3150V126H3108V84Z" fill="#16624E"/>
<path d="M3150 84H3192V126H3150V84Z" fill="#F9CEE1"/>
<path d="M3192 84H3234V126H3192V84Z" fill="#16624E"/>
<path d="M3234 84H3276V126H3234V84Z" fill="#F9CEE1"/>
<path d="M3276 84H3318V126H3276V84Z" fill="#16624E"/>
<path d="M3318 84H3360V126H3318V84Z" fill="#F9CEE1"/>
</svg>
