<svg width="400" height="400" viewBox="0 0 400 400" fill="none" xmlns="http://www.w3.org/2000/svg">
<circle cx="200" cy="200" r="200" fill="#12462B" fill-opacity="0.1"/>
<circle cx="200" cy="200" r="189.5" stroke="#12462B" stroke-opacity="0.6" stroke-width="21"/>
<mask id="path-3-inside-1_2_413" fill="white">
<path d="M147.564 200.5C147.564 236.488 168.536 266.105 195.142 269.048C197.927 261.363 199.867 253.167 199.867 239.615C199.867 221.541 196.275 212.708 192.472 203.357C188.286 193.066 183.957 182.424 183.957 161.381C183.957 149.523 185.359 140.877 187.399 133.597C164.579 140.839 147.564 168.085 147.564 200.5Z"/>
<path d="M251.436 200.5C251.436 164.512 230.464 134.894 203.858 131.952C201.072 139.636 199.133 147.831 199.133 161.381C199.133 179.455 202.725 188.288 206.528 197.639C210.714 207.93 215.043 218.572 215.043 239.615C215.043 251.475 213.64 260.122 211.6 267.402C234.421 260.162 251.436 232.915 251.436 200.5Z"/>
<path d="M154.57 111.779L168.592 105.967L174.404 119.989L160.382 125.802L154.57 111.779Z"/>
<path d="M142.944 83.7389L156.967 77.9266L162.779 91.949L148.756 97.7613L142.944 83.7389Z"/>
<path d="M105.017 169.592L110.83 155.569L124.852 161.382L119.04 175.404L105.017 169.592Z"/>
<path d="M76.9654 157.976L82.7777 143.953L96.8001 149.765L90.9878 163.788L76.9654 157.976Z"/>
<path d="M105.05 231.438L119.073 225.626L124.885 239.648L110.862 245.461L105.05 231.438Z"/>
<path d="M77.0094 243.064L91.0318 237.252L96.8441 251.274L82.8217 257.086L77.0094 243.064Z"/>
<path d="M154.6 289.254L160.412 275.232L174.434 281.044L168.622 295.066L154.6 289.254Z"/>
<path d="M142.984 317.306L148.796 303.283L162.819 309.096L157.006 323.118L142.984 317.306Z"/>
<path d="M224.709 280.958L238.732 275.146L244.544 289.168L230.522 294.981L224.709 280.958Z"/>
<path d="M236.334 309.001L250.356 303.188L256.169 317.211L242.146 323.023L236.334 309.001Z"/>
<path d="M274.261 239.671L280.074 225.649L294.096 231.461L288.284 245.484L274.261 239.671Z"/>
<path d="M302.313 251.286L308.125 237.263L322.147 243.076L316.335 257.098L302.313 251.286Z"/>
<path d="M274.229 161.299L288.252 155.486L294.064 169.509L280.042 175.321L274.229 161.299Z"/>
<path d="M302.27 149.673L316.292 143.861L322.105 157.883L308.082 163.695L302.27 149.673Z"/>
<path d="M224.68 120.01L230.492 105.987L244.515 111.8L238.702 125.822L224.68 120.01Z"/>
<path d="M236.295 91.9574L242.107 77.935L256.13 83.7474L250.317 97.7698L236.295 91.9574Z"/>
<path d="M191.912 71H207.088V116.527H191.912V71Z"/>
<path d="M102.556 114.296L113.285 103.567L145.473 135.755L134.744 146.484L102.556 114.296Z"/>
<path d="M70 192.912H115.527V208.088H70V192.912Z"/>
<path d="M102.54 286.688L134.728 254.5L145.457 265.229L113.269 297.417L102.54 286.688Z"/>
<path d="M191.912 284.473H207.088V330H191.912V284.473Z"/>
<path d="M253.472 265.245L264.201 254.516L296.389 286.703L285.66 297.433L253.472 265.245Z"/>
<path d="M283.473 192.912H329V208.088H283.473V192.912Z"/>
<path d="M253.488 135.772L285.676 103.584L296.405 114.313L264.217 146.501L253.488 135.772Z"/>
</mask>
<path d="M147.564 200.5C147.564 236.488 168.536 266.105 195.142 269.048C197.927 261.363 199.867 253.167 199.867 239.615C199.867 221.541 196.275 212.708 192.472 203.357C188.286 193.066 183.957 182.424 183.957 161.381C183.957 149.523 185.359 140.877 187.399 133.597C164.579 140.839 147.564 168.085 147.564 200.5Z" fill="#12462B" fill-opacity="0.6"/>
<path d="M251.436 200.5C251.436 164.512 230.464 134.894 203.858 131.952C201.072 139.636 199.133 147.831 199.133 161.381C199.133 179.455 202.725 188.288 206.528 197.639C210.714 207.93 215.043 218.572 215.043 239.615C215.043 251.475 213.64 260.122 211.6 267.402C234.421 260.162 251.436 232.915 251.436 200.5Z" fill="#12462B" fill-opacity="0.6"/>
<path d="M154.57 111.779L168.592 105.967L174.404 119.989L160.382 125.802L154.57 111.779Z" fill="#12462B" fill-opacity="0.6"/>
<path d="M142.944 83.7389L156.967 77.9266L162.779 91.949L148.756 97.7613L142.944 83.7389Z" fill="#12462B" fill-opacity="0.6"/>
<path d="M105.017 169.592L110.83 155.569L124.852 161.382L119.04 175.404L105.017 169.592Z" fill="#12462B" fill-opacity="0.6"/>
<path d="M76.9654 157.976L82.7777 143.953L96.8001 149.765L90.9878 163.788L76.9654 157.976Z" fill="#12462B" fill-opacity="0.6"/>
<path d="M105.05 231.438L119.073 225.626L124.885 239.648L110.862 245.461L105.05 231.438Z" fill="#12462B" fill-opacity="0.6"/>
<path d="M77.0094 243.064L91.0318 237.252L96.8441 251.274L82.8217 257.086L77.0094 243.064Z" fill="#12462B" fill-opacity="0.6"/>
<path d="M154.6 289.254L160.412 275.232L174.434 281.044L168.622 295.066L154.6 289.254Z" fill="#12462B" fill-opacity="0.6"/>
<path d="M142.984 317.306L148.796 303.283L162.819 309.096L157.006 323.118L142.984 317.306Z" fill="#12462B" fill-opacity="0.6"/>
<path d="M224.709 280.958L238.732 275.146L244.544 289.168L230.522 294.981L224.709 280.958Z" fill="#12462B" fill-opacity="0.6"/>
<path d="M236.334 309.001L250.356 303.188L256.169 317.211L242.146 323.023L236.334 309.001Z" fill="#12462B" fill-opacity="0.6"/>
<path d="M274.261 239.671L280.074 225.649L294.096 231.461L288.284 245.484L274.261 239.671Z" fill="#12462B" fill-opacity="0.6"/>
<path d="M302.313 251.286L308.125 237.263L322.147 243.076L316.335 257.098L302.313 251.286Z" fill="#12462B" fill-opacity="0.6"/>
<path d="M274.229 161.299L288.252 155.486L294.064 169.509L280.042 175.321L274.229 161.299Z" fill="#12462B" fill-opacity="0.6"/>
<path d="M302.27 149.673L316.292 143.861L322.105 157.883L308.082 163.695L302.27 149.673Z" fill="#12462B" fill-opacity="0.6"/>
<path d="M224.68 120.01L230.492 105.987L244.515 111.8L238.702 125.822L224.68 120.01Z" fill="#12462B" fill-opacity="0.6"/>
<path d="M236.295 91.9574L242.107 77.935L256.13 83.7474L250.317 97.7698L236.295 91.9574Z" fill="#12462B" fill-opacity="0.6"/>
<path d="M191.912 71H207.088V116.527H191.912V71Z" fill="#12462B" fill-opacity="0.6"/>
<path d="M102.556 114.296L113.285 103.567L145.473 135.755L134.744 146.484L102.556 114.296Z" fill="#12462B" fill-opacity="0.6"/>
<path d="M70 192.912H115.527V208.088H70V192.912Z" fill="#12462B" fill-opacity="0.6"/>
<path d="M102.54 286.688L134.728 254.5L145.457 265.229L113.269 297.417L102.54 286.688Z" fill="#12462B" fill-opacity="0.6"/>
<path d="M191.912 284.473H207.088V330H191.912V284.473Z" fill="#12462B" fill-opacity="0.6"/>
<path d="M253.472 265.245L264.201 254.516L296.389 286.703L285.66 297.433L253.472 265.245Z" fill="#12462B" fill-opacity="0.6"/>
<path d="M283.473 192.912H329V208.088H283.473V192.912Z" fill="#12462B" fill-opacity="0.6"/>
<path d="M253.488 135.772L285.676 103.584L296.405 114.313L264.217 146.501L253.488 135.772Z" fill="#12462B" fill-opacity="0.6"/>
<path d="M147.564 200.5C147.564 236.488 168.536 266.105 195.142 269.048C197.927 261.363 199.867 253.167 199.867 239.615C199.867 221.541 196.275 212.708 192.472 203.357C188.286 193.066 183.957 182.424 183.957 161.381C183.957 149.523 185.359 140.877 187.399 133.597C164.579 140.839 147.564 168.085 147.564 200.5Z" stroke="#12462B" stroke-opacity="0.6" stroke-width="1.9997" mask="url(#path-3-inside-1_2_413)"/>
<path d="M251.436 200.5C251.436 164.512 230.464 134.894 203.858 131.952C201.072 139.636 199.133 147.831 199.133 161.381C199.133 179.455 202.725 188.288 206.528 197.639C210.714 207.93 215.043 218.572 215.043 239.615C215.043 251.475 213.64 260.122 211.6 267.402C234.421 260.162 251.436 232.915 251.436 200.5Z" stroke="#12462B" stroke-opacity="0.6" stroke-width="1.9997" mask="url(#path-3-inside-1_2_413)"/>
<path d="M154.57 111.779L168.592 105.967L174.404 119.989L160.382 125.802L154.57 111.779Z" stroke="#12462B" stroke-opacity="0.6" stroke-width="1.9997" mask="url(#path-3-inside-1_2_413)"/>
<path d="M142.944 83.7389L156.967 77.9266L162.779 91.949L148.756 97.7613L142.944 83.7389Z" stroke="#12462B" stroke-opacity="0.6" stroke-width="1.9997" mask="url(#path-3-inside-1_2_413)"/>
<path d="M105.017 169.592L110.83 155.569L124.852 161.382L119.04 175.404L105.017 169.592Z" stroke="#12462B" stroke-opacity="0.6" stroke-width="1.9997" mask="url(#path-3-inside-1_2_413)"/>
<path d="M76.9654 157.976L82.7777 143.953L96.8001 149.765L90.9878 163.788L76.9654 157.976Z" stroke="#12462B" stroke-opacity="0.6" stroke-width="1.9997" mask="url(#path-3-inside-1_2_413)"/>
<path d="M105.05 231.438L119.073 225.626L124.885 239.648L110.862 245.461L105.05 231.438Z" stroke="#12462B" stroke-opacity="0.6" stroke-width="1.9997" mask="url(#path-3-inside-1_2_413)"/>
<path d="M77.0094 243.064L91.0318 237.252L96.8441 251.274L82.8217 257.086L77.0094 243.064Z" stroke="#12462B" stroke-opacity="0.6" stroke-width="1.9997" mask="url(#path-3-inside-1_2_413)"/>
<path d="M154.6 289.254L160.412 275.232L174.434 281.044L168.622 295.066L154.6 289.254Z" stroke="#12462B" stroke-opacity="0.6" stroke-width="1.9997" mask="url(#path-3-inside-1_2_413)"/>
<path d="M142.984 317.306L148.796 303.283L162.819 309.096L157.006 323.118L142.984 317.306Z" stroke="#12462B" stroke-opacity="0.6" stroke-width="1.9997" mask="url(#path-3-inside-1_2_413)"/>
<path d="M224.709 280.958L238.732 275.146L244.544 289.168L230.522 294.981L224.709 280.958Z" stroke="#12462B" stroke-opacity="0.6" stroke-width="1.9997" mask="url(#path-3-inside-1_2_413)"/>
<path d="M236.334 309.001L250.356 303.188L256.169 317.211L242.146 323.023L236.334 309.001Z" stroke="#12462B" stroke-opacity="0.6" stroke-width="1.9997" mask="url(#path-3-inside-1_2_413)"/>
<path d="M274.261 239.671L280.074 225.649L294.096 231.461L288.284 245.484L274.261 239.671Z" stroke="#12462B" stroke-opacity="0.6" stroke-width="1.9997" mask="url(#path-3-inside-1_2_413)"/>
<path d="M302.313 251.286L308.125 237.263L322.147 243.076L316.335 257.098L302.313 251.286Z" stroke="#12462B" stroke-opacity="0.6" stroke-width="1.9997" mask="url(#path-3-inside-1_2_413)"/>
<path d="M274.229 161.299L288.252 155.486L294.064 169.509L280.042 175.321L274.229 161.299Z" stroke="#12462B" stroke-opacity="0.6" stroke-width="1.9997" mask="url(#path-3-inside-1_2_413)"/>
<path d="M302.27 149.673L316.292 143.861L322.105 157.883L308.082 163.695L302.27 149.673Z" stroke="#12462B" stroke-opacity="0.6" stroke-width="1.9997" mask="url(#path-3-inside-1_2_413)"/>
<path d="M224.68 120.01L230.492 105.987L244.515 111.8L238.702 125.822L224.68 120.01Z" stroke="#12462B" stroke-opacity="0.6" stroke-width="1.9997" mask="url(#path-3-inside-1_2_413)"/>
<path d="M236.295 91.9574L242.107 77.935L256.13 83.7474L250.317 97.7698L236.295 91.9574Z" stroke="#12462B" stroke-opacity="0.6" stroke-width="1.9997" mask="url(#path-3-inside-1_2_413)"/>
<path d="M191.912 71H207.088V116.527H191.912V71Z" stroke="#12462B" stroke-opacity="0.6" stroke-width="1.9997" mask="url(#path-3-inside-1_2_413)"/>
<path d="M102.556 114.296L113.285 103.567L145.473 135.755L134.744 146.484L102.556 114.296Z" stroke="#12462B" stroke-opacity="0.6" stroke-width="1.9997" mask="url(#path-3-inside-1_2_413)"/>
<path d="M70 192.912H115.527V208.088H70V192.912Z" stroke="#12462B" stroke-opacity="0.6" stroke-width="1.9997" mask="url(#path-3-inside-1_2_413)"/>
<path d="M102.54 286.688L134.728 254.5L145.457 265.229L113.269 297.417L102.54 286.688Z" stroke="#12462B" stroke-opacity="0.6" stroke-width="1.9997" mask="url(#path-3-inside-1_2_413)"/>
<path d="M191.912 284.473H207.088V330H191.912V284.473Z" stroke="#12462B" stroke-opacity="0.6" stroke-width="1.9997" mask="url(#path-3-inside-1_2_413)"/>
<path d="M253.472 265.245L264.201 254.516L296.389 286.703L285.66 297.433L253.472 265.245Z" stroke="#12462B" stroke-opacity="0.6" stroke-width="1.9997" mask="url(#path-3-inside-1_2_413)"/>
<path d="M283.473 192.912H329V208.088H283.473V192.912Z" stroke="#12462B" stroke-opacity="0.6" stroke-width="1.9997" mask="url(#path-3-inside-1_2_413)"/>
<path d="M253.488 135.772L285.676 103.584L296.405 114.313L264.217 146.501L253.488 135.772Z" stroke="#12462B" stroke-opacity="0.6" stroke-width="1.9997" mask="url(#path-3-inside-1_2_413)"/>
</svg>
