<svg width="323" height="324" viewBox="0 0 323 324" fill="none" xmlns="http://www.w3.org/2000/svg">
<circle cx="161.5" cy="162" r="161.5" fill="#12462B" fill-opacity="0.1"/>
<circle cx="161.5" cy="162" r="151" stroke="#12462B" stroke-opacity="0.6" stroke-width="21"/>
<path d="M219.83 127.503H218.239C217.544 122.458 213.21 118.559 207.981 118.559C202.27 118.559 197.624 123.21 197.624 128.925C197.624 134.641 202.271 139.292 207.981 139.292C208.484 139.292 208.977 139.254 209.46 139.185C211.98 145.32 213.304 151.967 213.304 158.594V174.426H223.373V158.594C223.373 151.454 222.087 144.296 219.634 137.581H219.83C228.147 137.581 234.914 144.354 234.914 152.678V174.426H244.983V152.678C244.983 138.797 233.699 127.503 219.83 127.503Z" fill="#12462B" fill-opacity="0.6"/>
<path d="M123.765 95.5042H190.925C191.535 95.5042 192.138 95.5449 192.731 95.6225L202.519 75.5975H112.171L121.959 95.6221C122.552 95.5449 123.155 95.5042 123.765 95.5042Z" fill="#12462B" fill-opacity="0.6"/>
<path d="M187.632 133.964H127.059L121.573 147.195C120.895 148.829 121.583 150.147 121.91 150.637C122.237 151.128 123.19 152.268 124.958 152.268H189.732C191.501 152.268 192.453 151.128 192.78 150.637C193.108 150.147 193.795 148.829 193.117 147.195L187.632 133.964Z" fill="#12462B" fill-opacity="0.6"/>
<path d="M210.471 210.01H104.219L99.4982 221.395C97.0334 227.339 97.6677 233.819 101.238 239.172C104.81 244.525 110.546 247.595 116.977 247.595H197.714C204.145 247.595 209.881 244.525 213.452 239.172C217.023 233.819 217.657 227.339 215.192 221.395L210.471 210.01Z" fill="#12462B" fill-opacity="0.6"/>
<path d="M190.694 162.31C190.375 162.332 190.055 162.346 189.732 162.346H124.958C124.636 162.346 124.315 162.332 123.996 162.31L108.397 199.932H206.293L190.694 162.31Z" fill="#12462B" fill-opacity="0.6"/>
<path d="M194.035 107.308C193.711 106.789 192.761 105.582 190.926 105.582H123.765C121.93 105.582 120.979 106.789 120.655 107.308C120.331 107.827 119.666 109.213 120.472 110.862L126.838 123.886H187.851L194.217 110.862C195.024 109.213 194.359 107.827 194.035 107.308Z" fill="#12462B" fill-opacity="0.6"/>
<path d="M217.744 127.571L217.803 128.003H218.239H219.83C233.422 128.003 244.483 139.073 244.483 152.678V173.926H235.414V152.678C235.414 144.078 228.424 137.081 219.83 137.081H219.634H218.919L219.164 137.752C221.598 144.413 222.873 151.514 222.873 158.594V173.926H213.804V158.594C213.804 151.901 212.467 145.189 209.923 138.995L209.775 138.634L209.389 138.69C208.928 138.756 208.458 138.792 207.981 138.792C202.547 138.792 198.124 134.366 198.124 128.925C198.124 123.485 202.547 119.059 207.981 119.059C212.956 119.059 217.082 122.77 217.744 127.571ZM120.922 110.643L120.922 110.643C120.226 109.22 120.794 108.03 121.08 107.573C121.365 107.115 122.183 106.082 123.765 106.082H190.926C192.507 106.082 193.325 107.115 193.611 107.573C193.896 108.03 194.464 109.22 193.768 110.643L193.768 110.643L187.539 123.386H127.15L120.922 110.643ZM190.925 95.0042H123.765C123.255 95.0042 122.751 95.0316 122.253 95.0841L112.972 76.0975H201.718L192.438 95.0843C191.939 95.0316 191.435 95.0042 190.925 95.0042ZM122.035 147.386L127.393 134.464H187.298L192.656 147.386L193.117 147.195L192.656 147.386C193.24 148.795 192.652 149.928 192.365 150.359C192.076 150.791 191.257 151.768 189.732 151.768H124.958C123.434 151.768 122.614 150.791 122.326 150.36C122.039 149.929 121.451 148.796 122.035 147.386L121.65 147.226L122.035 147.386ZM99.9601 221.586L104.553 210.51H210.138L214.73 221.586C217.131 227.377 216.514 233.68 213.036 238.894C209.557 244.109 203.977 247.095 197.714 247.095H116.977C110.713 247.095 105.133 244.109 101.654 238.894C98.1763 233.68 97.5592 227.377 99.9601 221.586ZM189.732 162.846C189.946 162.846 190.158 162.84 190.369 162.83L205.544 199.432H109.146L124.322 162.83C124.532 162.84 124.744 162.846 124.958 162.846H189.732Z" stroke="#12462B" stroke-opacity="0.6"/>
</svg>
