<svg width="400" height="400" viewBox="0 0 400 400" fill="none" xmlns="http://www.w3.org/2000/svg">
<circle cx="200" cy="200" r="200" fill="#12462B" fill-opacity="0.1"/>
<circle cx="200" cy="200" r="189.5" stroke="#12462B" stroke-opacity="0.6" stroke-width="21"/>
<path d="M169.834 210.991C169.834 207.425 170.082 204.426 170.499 201.801C168.232 203.216 166.122 205.139 164.253 207.531C159.58 213.509 157.007 221.546 157.007 230.16C157.007 238.775 159.58 246.811 164.253 252.79C167.608 257.082 171.738 259.866 176.156 260.895C177.003 258.076 177.653 254.523 177.653 249.327C177.653 240.964 176.055 237.046 174.205 232.51C172.156 227.488 169.834 221.796 169.834 210.991Z" fill="#12462B" fill-opacity="0.6"/>
<path d="M144.998 94H255.003V118.98H144.998V94Z" fill="#12462B" fill-opacity="0.6"/>
<path d="M183.848 199.425C183.002 202.244 182.351 205.796 182.351 210.991C182.351 219.355 183.95 223.272 185.8 227.808C187.849 232.83 190.171 238.523 190.171 249.327C190.171 252.895 189.922 255.894 189.506 258.52C191.772 257.105 193.883 255.181 195.752 252.79C200.425 246.811 202.998 238.775 202.998 230.16C202.998 221.545 200.425 213.509 195.752 207.531C192.397 203.239 188.266 200.455 183.848 199.425Z" fill="#12462B" fill-opacity="0.6"/>
<path d="M143.957 131.46L125 234.879V307H235.005V233.748L253.755 131.46H143.957ZM205.625 260.461C198.888 269.081 189.788 273.828 180.002 273.828C170.216 273.828 161.117 269.081 154.38 260.461C148.001 252.301 144.489 241.54 144.489 230.16C144.489 218.78 148.001 208.019 154.38 199.859C161.117 191.239 170.217 186.493 180.002 186.493C189.788 186.493 198.888 191.24 205.625 199.859C212.003 208.019 215.516 218.78 215.516 230.16C215.516 241.54 212.003 252.301 205.625 260.461Z" fill="#12462B" fill-opacity="0.6"/>
<path d="M261.262 159.929L247.522 234.879V307H275V234.879L261.262 159.929Z" fill="#12462B" fill-opacity="0.6"/>
<path d="M164.647 252.482L164.279 252.77L164.647 252.482C160.052 246.603 157.507 238.679 157.507 230.16C157.507 221.642 160.052 213.717 164.647 207.839C166.226 205.818 167.976 204.143 169.841 202.836C169.52 205.217 169.334 207.894 169.334 210.991C169.334 221.889 171.682 227.651 173.742 232.699L173.745 232.708C175.583 237.212 177.153 241.061 177.153 249.327C177.153 254.199 176.577 257.597 175.811 260.294C171.694 259.214 167.826 256.55 164.647 252.482ZM190.163 257.485C190.484 255.104 190.671 252.426 190.671 249.327C190.671 238.429 188.323 232.668 186.263 227.619L186.259 227.609C184.422 223.106 182.851 219.257 182.851 210.991C182.851 206.121 183.427 202.723 184.193 200.026C188.311 201.107 192.178 203.771 195.358 207.839C199.953 213.717 202.498 221.641 202.498 230.16C202.498 238.679 199.953 246.603 195.358 252.482C193.779 254.502 192.028 256.178 190.163 257.485ZM234.513 233.657L234.505 233.702V233.748V306.5H125.5V234.924L144.374 131.96H253.155L234.513 233.657ZM145.498 94.5H254.503V118.48H145.498V94.5ZM180.002 274.328C189.962 274.328 199.2 269.494 206.019 260.769C212.473 252.513 216.016 241.64 216.016 230.16C216.016 218.68 212.473 207.808 206.019 199.551C199.2 190.827 189.961 185.993 180.002 185.993C170.043 185.993 160.805 190.827 153.986 199.551C147.532 207.808 143.989 218.68 143.989 230.16C143.989 241.64 147.532 252.513 153.986 260.769C160.805 269.493 170.043 274.328 180.002 274.328ZM248.022 306.5V234.924L261.262 162.702L274.5 234.924V306.5H248.022Z" stroke="#12462B" stroke-opacity="0.6"/>
</svg>
